<?xml version="1.0" standalone="no"?>
<!DOCTYPE svg PUBLIC "-//W3C//DTD SVG 20010904//EN"
 "http://www.w3.org/TR/2001/REC-SVG-20010904/DTD/svg10.dtd">
<svg version="1.0" xmlns="http://www.w3.org/2000/svg"
 width="260.000000pt" height="260.000000pt" viewBox="0 0 260.000000 260.000000"
 preserveAspectRatio="xMidYMid meet">
<metadata>
Created by potrace 1.11, written by Peter Selinger 2001-2013
</metadata>
<g transform="translate(0.000000,260.000000) scale(0.100000,-0.100000)"
fill="#000000" stroke="none">
<path d="M0 1300 l0 -1300 1300 0 1300 0 0 1300 0 1300 -1300 0 -1300 0 0
-1300z m1175 1030 c-19 -21 -19 -50 0 -50 11 0 15 -12 15 -50 0 -54 -8 -60
-55 -38 -67 30 -82 120 -31 194 14 21 24 39 23 40 -1 1 -16 -1 -34 -3 -41 -7
-76 -42 -120 -123 -102 -190 -120 -210 -186 -210 -33 0 -46 6 -75 37 -34 37
-34 38 -29 105 3 37 2 68 -2 68 -17 0 -70 -63 -75 -89 -3 -14 -10 -75 -16
-136 -17 -162 -21 -176 -59 -202 -42 -28 -86 -29 -128 -3 -25 15 -36 32 -48
75 -18 59 -24 65 -41 37 -28 -45 -26 -78 16 -206 47 -143 54 -190 34 -228 -42
-82 -164 -75 -210 13 -12 25 -18 29 -25 18 -12 -20 -11 -66 2 -92 7 -12 47
-60 89 -107 122 -134 139 -174 104 -241 -15 -30 -65 -59 -102 -59 -10 0 -41
11 -67 25 -27 13 -50 23 -51 22 -1 -1 4 -20 11 -42 17 -47 35 -62 123 -100
130 -55 192 -88 206 -109 36 -55 27 -120 -21 -162 -21 -18 -37 -22 -84 -21
-68 2 -74 -8 -28 -47 30 -26 33 -26 186 -26 199 0 230 -15 238 -116 3 -38 -1
-50 -26 -79 -19 -21 -44 -37 -65 -41 -47 -9 -51 -20 -13 -39 43 -23 76 -15
200 47 125 62 188 72 231 38 55 -43 55 -130 2 -187 -37 -39 -37 -40 -14 -43
41 -6 66 3 101 39 l39 39 0 -68 c0 -81 -9 -92 -87 -98 -85 -7 -190 15 -209 43
-20 31 -11 47 66 118 107 100 76 108 -105 26 -125 -56 -142 -61 -191 -57 -44
4 -67 13 -124 52 -71 49 -93 83 -74 114 5 8 45 27 89 43 92 34 103 42 85 64
-10 12 -38 15 -159 13 -161 -1 -194 7 -242 59 -36 39 -89 139 -89 168 0 36 25
43 115 34 160 -16 155 14 -15 90 -154 69 -170 80 -200 133 -22 38 -25 56 -25
142 0 131 1 131 173 30 28 -17 34 -17 42 -4 14 22 14 22 -26 66 -193 208 -208
245 -159 401 37 116 65 121 134 23 61 -86 70 -95 88 -77 13 13 11 27 -16 113
-17 55 -36 108 -42 118 -6 11 -13 45 -15 77 -4 73 27 138 96 203 77 72 92 64
123 -65 19 -78 26 -94 42 -94 24 0 31 32 40 175 6 106 26 172 63 213 21 24
158 87 188 87 14 0 28 -9 35 -22 7 -13 11 -24 9 -25 -2 -1 -11 -40 -21 -85
-13 -64 -15 -86 -6 -95 7 -7 17 -9 23 -5 6 4 44 64 84 135 91 162 112 179 224
187 l81 5 3 -84 c2 -64 -1 -87 -13 -101z m303 154 c30 -21 28 -41 -13 -104
l-34 -55 -1 88 c0 93 5 101 48 71z m393 -74 c77 -39 68 -31 75 -67 6 -28 2
-32 -75 -82 -45 -28 -81 -56 -81 -61 0 -23 25 -21 214 25 77 18 115 16 169
-10 40 -19 147 -139 147 -165 -1 -39 -41 -59 -125 -61 -63 -2 -100 -22 -75
-39 8 -5 40 -14 70 -20 190 -36 223 -47 265 -93 30 -32 46 -63 63 -118 27 -91
27 -101 3 -123 -18 -16 -23 -16 -105 9 -81 25 -106 26 -106 5 0 -5 46 -42 103
-84 167 -122 183 -149 174 -292 -10 -146 -37 -158 -141 -64 -37 33 -71 60 -76
60 -26 0 -15 -32 54 -152 72 -125 76 -135 76 -193 0 -51 -6 -70 -40 -132 -68
-123 -100 -122 -156 3 -27 61 -42 84 -53 82 -18 -4 -18 -8 -5 -138 15 -147 11
-211 -15 -253 -28 -45 -139 -127 -173 -127 -41 0 -48 17 -48 116 0 138 -22
138 -65 -1 -49 -163 -76 -217 -122 -247 -51 -35 -182 -65 -212 -49 -34 19 -33
45 4 130 40 95 41 101 18 101 -10 0 -50 -39 -91 -89 -40 -49 -82 -97 -93 -107
-19 -17 -19 -16 -19 56 0 69 2 75 37 119 87 105 107 121 152 121 59 0 96 -22
114 -69 16 -39 13 -106 -4 -117 -18 -10 -9 -32 10 -27 45 12 81 89 130 279 19
74 71 111 139 101 53 -9 89 -53 98 -118 l7 -52 25 28 c23 28 24 33 18 110 -4
44 -10 121 -13 171 -5 90 -5 91 23 123 61 67 152 53 194 -29 24 -48 41 -43 43
12 1 25 -17 65 -65 149 -89 155 -98 187 -66 239 19 33 70 60 111 60 13 0 41
-13 63 -30 21 -16 41 -30 44 -30 4 0 4 16 2 35 -5 39 -22 56 -156 153 -92 67
-126 109 -126 157 0 36 31 89 61 105 22 12 98 9 132 -5 26 -11 21 11 -10 44
-25 26 -46 33 -173 61 -160 34 -194 54 -206 117 -14 73 24 126 104 146 l54 13
-27 18 c-31 20 -85 23 -128 7 -15 -6 -27 -9 -27 -6 0 2 -21 -2 -47 -10 -130
-37 -191 -31 -228 23 -45 66 -27 141 42 182 l38 23 -25 9 c-39 14 -59 4 -190
-92 -67 -49 -128 -90 -136 -90 -10 0 -14 15 -14 55 0 30 3 55 8 55 4 0 18 10
32 23 51 45 183 140 209 148 47 15 125 2 192 -31z m-681 -440 l0 -50 -52 0
c-60 0 -117 -16 -203 -56 -76 -35 -80 -36 -101 -13 -26 29 -11 63 38 89 77 40
203 74 296 79 20 1 22 -3 22 -49z m450 4 c362 -120 559 -532 430 -901 -44
-126 -127 -246 -219 -316 -112 -86 -271 -147 -380 -147 l-41 0 0 48 0 48 81
11 c185 25 354 150 438 325 55 116 61 146 58 288 -4 140 -17 187 -85 298 -93
153 -234 246 -418 274 l-74 12 0 49 0 50 64 -6 c35 -3 101 -18 146 -33z m-450
-179 c0 -25 -3 -45 -7 -45 -5 0 -38 -7 -74 -14 -82 -18 -130 -42 -191 -95 -49
-43 -77 -51 -101 -26 -22 22 -10 49 43 99 62 58 134 95 220 112 13 3 26 6 27
8 1 1 21 3 43 4 l40 3 0 -46z m340 29 c57 -9 145 -49 196 -88 64 -49 79 -72
66 -101 -18 -39 -45 -36 -118 15 -76 52 -148 80 -206 80 l-38 0 0 48 c0 27 3
51 6 55 5 5 17 4 94 -9z m-775 -28 c16 -12 18 -19 10 -43 -18 -49 -85 -40 -85
11 0 43 39 59 75 32z m435 -174 c0 -46 -1 -48 -31 -50 -46 -4 -121 -45 -161
-90 -71 -78 -85 -191 -36 -288 38 -77 131 -144 199 -144 28 0 29 -2 29 -48 l0
-49 -53 8 c-104 14 -202 86 -253 186 -27 53 -29 67 -29 163 0 94 3 111 27 160
49 97 121 159 215 185 87 24 93 22 93 -33z m387 7 c145 -69 228 -245 188 -401
-20 -78 -51 -132 -106 -183 -52 -48 -117 -80 -182 -90 l-47 -7 0 50 0 50 44
11 c141 35 228 169 197 304 -6 29 -20 67 -31 84 -30 50 -107 101 -162 109
l-48 7 0 53 0 54 43 -6 c23 -3 70 -19 104 -35z m-917 6 c5 -13 -3 -46 -22 -93
-137 -344 60 -739 413 -826 36 -9 82 -16 102 -16 l37 0 0 -48 0 -48 -75 8
c-158 17 -286 79 -405 199 -137 136 -202 300 -202 508 0 98 5 129 27 201 40
127 50 142 87 138 20 -2 33 -10 38 -23z m1138 -617 c19 -19 15 -66 -7 -78 -27
-14 -37 -13 -55 6 -32 31 -14 84 29 84 12 0 26 -5 33 -12z m-891 -31 c82 -66
175 -107 245 -107 l38 0 0 -50 c0 -27 -3 -50 -7 -50 -35 0 -149 28 -193 47
-139 61 -196 129 -142 171 21 16 26 16 59 -11z m772 -81 c34 -41 -33 -89 -154
-113 -99 -18 -95 -20 -95 36 0 51 8 61 53 61 12 0 51 11 87 24 66 23 84 22
109 -8z"/>
</g>
</svg>
